<?xml version="1.0" encoding="UTF-8"?>
<!DOCTYPE svg PUBLIC "-//W3C//DTD SVG 1.1//EN" "http://www.w3.org/Graphics/SVG/1.1/DTD/svg11.dtd">
<svg xmlns="http://www.w3.org/2000/svg" version="1.1" width="2309px" height="2309px" style="shape-rendering:geometricPrecision; text-rendering:geometricPrecision; image-rendering:optimizeQuality; fill-rule:evenodd; clip-rule:evenodd" xmlns:xlink="http://www.w3.org/1999/xlink">
<g><path style="opacity:0.999" fill="#fefefe" d="M 1110.5,-0.5 C 1139.5,-0.5 1168.5,-0.5 1197.5,-0.5C 1489.55,14.169 1741.55,121.002 1953.5,320C 2176.46,539.469 2294.79,806.302 2308.5,1120.5C 2308.5,1146.83 2308.5,1173.17 2308.5,1199.5C 2293.9,1483.65 2191.4,1730.31 2001,1939.5C 1825.83,2125.98 1611.66,2243.15 1358.5,2291C 1305.04,2300.18 1251.37,2306.01 1197.5,2308.5C 1168.17,2308.5 1138.83,2308.5 1109.5,2308.5C 821.411,2294.15 572.078,2189.65 361.5,1995C 156.34,1797.84 37.5068,1557 5,1272.5C 2.70269,1248.04 0.869356,1223.71 -0.5,1199.5C -0.5,1164.5 -0.5,1129.5 -0.5,1094.5C 19.9722,786.63 140.639,526.13 361.5,313C 572.37,118.143 822.037,13.6432 1110.5,-0.5 Z"/></g>
<g><path style="opacity:1" fill="#000000" d="M 303.5,481.5 C 589.68,646.757 876.013,811.757 1162.5,976.5C 1448.87,811.895 1735.04,646.895 2021,481.5C 2019.93,484.966 2018.27,488.299 2016,491.5C 1984,541.5 1952,591.5 1920,641.5C 1919.33,942.167 1919.33,1242.83 1920,1543.5C 1930.07,1600.91 1963.91,1634.07 2021.5,1643C 1885.25,1721.37 1749.08,1799.87 1613,1878.5C 1612.67,1609.5 1612.33,1340.5 1612,1071.5C 1513.67,1128.5 1415.33,1185.5 1317,1242.5C 1316.33,1460.5 1316.33,1678.5 1317,1896.5C 1328.52,1951.35 1362.02,1982.85 1417.5,1991C 1332.5,2040.17 1247.5,2089.33 1162.5,2138.5C 1077.33,2089.08 991.997,2039.91 906.5,1991C 962.544,1983.29 996.377,1951.79 1008,1896.5C 1008.67,1678.5 1008.67,1460.5 1008,1242.5C 909.667,1185.5 811.333,1128.5 713,1071.5C 712.667,1340.5 712.333,1609.5 712,1878.5C 575.745,1799.62 439.245,1721.12 302.5,1643C 360.175,1634.66 394.341,1601.83 405,1544.5C 405.667,1243.5 405.667,942.5 405,641.5C 370.895,588.279 337.062,534.946 303.5,481.5 Z"/></g>
</svg>
