<?xml version="1.0" encoding="UTF-8"?>
<svg xmlns="http://www.w3.org/2000/svg" xmlns:xlink="http://www.w3.org/1999/xlink" width="305px" height="305px" viewBox="0 0 305 305" version="1.1">
<g id="surface1">
<path style=" stroke:none;fill-rule:evenodd;fill:rgb(99.607843%,99.607843%,99.607843%);fill-opacity:1;" d="M 146.6875 -0.0664062 C 150.519531 -0.0664062 154.347656 -0.0664062 158.179688 -0.0664062 C 196.757812 1.871094 230.042969 15.984375 258.042969 42.269531 C 287.492188 71.257812 303.121094 106.507812 304.933594 148.007812 C 304.933594 151.488281 304.933594 154.964844 304.933594 158.445312 C 303.003906 195.976562 289.464844 228.558594 264.316406 256.191406 C 241.175781 280.824219 212.886719 296.300781 179.445312 302.621094 C 172.386719 303.835938 165.296875 304.605469 158.179688 304.933594 C 154.304688 304.933594 150.429688 304.933594 146.554688 304.933594 C 108.5 303.039062 75.566406 289.234375 47.75 263.523438 C 20.652344 237.480469 4.953125 205.667969 0.660156 168.085938 C 0.355469 164.855469 0.113281 161.640625 -0.0664062 158.445312 C -0.0664062 153.820312 -0.0664062 149.199219 -0.0664062 144.574219 C 2.636719 103.90625 18.578125 69.496094 47.75 41.34375 C 75.605469 15.605469 108.585938 1.800781 146.6875 -0.0664062 Z M 146.6875 -0.0664062 "/>
<path style=" stroke:none;fill-rule:evenodd;fill:rgb(0%,0%,0%);fill-opacity:1;" d="M 40.089844 63.601562 C 77.890625 85.429688 115.714844 107.226562 153.558594 128.988281 C 191.382812 107.246094 229.183594 85.449219 266.957031 63.601562 C 266.816406 64.058594 266.597656 64.5 266.296875 64.921875 C 262.070312 71.527344 257.84375 78.132812 253.617188 84.738281 C 253.527344 124.453125 253.527344 164.167969 253.617188 203.882812 C 254.945312 211.46875 259.417969 215.847656 267.023438 217.027344 C 249.027344 227.378906 231.039062 237.75 213.0625 248.132812 C 213.019531 212.601562 212.976562 177.070312 212.933594 141.535156 C 199.945312 149.066406 186.953125 156.59375 173.964844 164.125 C 173.875 192.921875 173.875 221.714844 173.964844 250.511719 C 175.488281 257.757812 179.910156 261.917969 187.238281 262.996094 C 176.011719 269.488281 164.785156 275.984375 153.558594 282.476562 C 142.304688 275.949219 131.035156 269.457031 119.742188 262.996094 C 127.144531 261.976562 131.613281 257.816406 133.148438 250.511719 C 133.238281 221.714844 133.238281 192.921875 133.148438 164.125 C 120.160156 156.59375 107.171875 149.066406 94.179688 141.535156 C 94.136719 177.070312 94.09375 212.601562 94.050781 248.132812 C 76.050781 237.714844 58.019531 227.347656 39.957031 217.027344 C 47.574219 215.925781 52.089844 211.589844 53.496094 204.015625 C 53.585938 164.257812 53.585938 124.496094 53.496094 84.738281 C 48.992188 77.707031 44.523438 70.660156 40.089844 63.601562 Z M 40.089844 63.601562 "/>
</g>
</svg>
